<?xml version="1.0" ?><!DOCTYPE svg  PUBLIC '-//W3C//DTD SVG 1.1//EN'  'http://www.w3.org/Graphics/SVG/1.1/DTD/svg11.dtd'><svg enable-background="new 0 0 512 512" id="Layer_1" version="1.1" viewBox="0 0 512 512" xml:space="preserve" xmlns="http://www.w3.org/2000/svg" xmlns:xlink="http://www.w3.org/1999/xlink"><linearGradient gradientUnits="userSpaceOnUse" id="SVGID_1_" x1="256" x2="256" y1="512" y2="-9.094947e-013"><stop offset="0" style="stop-color:#EB3349"/><stop offset="1" style="stop-color:#F45C43"/></linearGradient><circle cx="256" cy="256" fill="url(#SVGID_1_)" r="256"/><g><path d="M256,123.4c-76,0-137.9,53.5-137.9,119.4c0,11.7,2,23.2,5.8,34.4L155,384.6c0.6,2,2.2,3.5,4.2,3.9   c0.4,0.1,0.7,0.1,1.1,0.1c1.6,0,3.2-0.7,4.3-2l30.4-36.8c18.9,8.1,39.9,12.3,61,12.3c76,0,137.9-53.5,137.9-119.4   S332,123.4,256,123.4z M256,351.1c-21,0-41.9-4.5-60.3-13c-2.3-1.1-5-0.4-6.6,1.5l-26.4,31.9l-28.3-97.6c0-0.1-0.1-0.2-0.1-0.3   c-3.5-10-5.2-20.4-5.2-30.9c0-59.7,56.9-108.3,126.9-108.3c70,0,126.9,48.6,126.9,108.3S326,351.1,256,351.1z" fill="#FFFFFF"/><path d="M255.6,222.4c-11,0-19.9,8.9-19.9,19.9c0,11,8.9,19.9,19.9,19.9c11,0,19.9-8.9,19.9-19.9   C275.5,231.4,266.6,222.4,255.6,222.4z M255.6,251.2c-4.9,0-8.8-4-8.8-8.8c0-4.9,4-8.8,8.8-8.8c4.9,0,8.8,4,8.8,8.8   C264.5,247.2,260.5,251.2,255.6,251.2z" fill="#FFFFFF"/><path d="M304,222.4c-11,0-19.9,8.9-19.9,19.9c0,11,8.9,19.9,19.9,19.9s19.9-8.9,19.9-19.9   C323.9,231.4,315,222.4,304,222.4z M304,251.2c-4.9,0-8.8-4-8.8-8.8c0-4.9,4-8.8,8.8-8.8s8.8,4,8.8,8.8   C312.9,247.2,308.9,251.2,304,251.2z" fill="#FFFFFF"/><path d="M208,222.4c-11,0-19.9,8.9-19.9,19.9c0,11,8.9,19.9,19.9,19.9c11,0,19.9-8.9,19.9-19.9   C227.8,231.4,218.9,222.4,208,222.4z M208,251.2c-4.9,0-8.8-4-8.8-8.8c0-4.9,4-8.8,8.8-8.8c4.9,0,8.8,4,8.8,8.8   C216.8,247.2,212.8,251.2,208,251.2z" fill="#FFFFFF"/></g></svg>